<mxfile host="app.diagrams.net" agent="Mozilla/5.0 (Windows NT 10.0; Win64; x64) AppleWebKit/537.36 (KHTML, like Gecko) Chrome/133.0.0.0 Safari/537.36" version="26.1.0">
  <diagram name="Page-1" id="_lnY_Vom8N968X2jT9b4">
    <mxGraphModel dx="2074" dy="1098" grid="1" gridSize="10" guides="1" tooltips="1" connect="1" arrows="1" fold="1" page="1" pageScale="1" pageWidth="850" pageHeight="1100" math="0" shadow="0">
      <root>
        <mxCell id="0" />
        <mxCell id="1" parent="0" />
        <mxCell id="kavnt-JneBNQBCjQznNA-4" value="" style="edgeStyle=orthogonalEdgeStyle;rounded=0;orthogonalLoop=1;jettySize=auto;html=1;" edge="1" parent="1" source="kavnt-JneBNQBCjQznNA-1" target="kavnt-JneBNQBCjQznNA-3">
          <mxGeometry relative="1" as="geometry" />
        </mxCell>
        <mxCell id="kavnt-JneBNQBCjQznNA-5" value="https" style="edgeLabel;html=1;align=center;verticalAlign=middle;resizable=0;points=[];" vertex="1" connectable="0" parent="kavnt-JneBNQBCjQznNA-4">
          <mxGeometry x="-0.0564" y="-1" relative="1" as="geometry">
            <mxPoint as="offset" />
          </mxGeometry>
        </mxCell>
        <mxCell id="kavnt-JneBNQBCjQznNA-1" value="frontend" style="rounded=1;whiteSpace=wrap;html=1;" vertex="1" parent="1">
          <mxGeometry x="100" y="390" width="100" height="60" as="geometry" />
        </mxCell>
        <mxCell id="kavnt-JneBNQBCjQznNA-7" value="" style="edgeStyle=orthogonalEdgeStyle;rounded=0;orthogonalLoop=1;jettySize=auto;html=1;" edge="1" parent="1" source="kavnt-JneBNQBCjQznNA-3" target="kavnt-JneBNQBCjQznNA-6">
          <mxGeometry relative="1" as="geometry" />
        </mxCell>
        <mxCell id="kavnt-JneBNQBCjQznNA-3" value="backend" style="rounded=1;whiteSpace=wrap;html=1;" vertex="1" parent="1">
          <mxGeometry x="325" y="390" width="100" height="60" as="geometry" />
        </mxCell>
        <mxCell id="kavnt-JneBNQBCjQznNA-9" value="" style="edgeStyle=orthogonalEdgeStyle;rounded=0;orthogonalLoop=1;jettySize=auto;html=1;" edge="1" parent="1" source="kavnt-JneBNQBCjQznNA-6" target="kavnt-JneBNQBCjQznNA-8">
          <mxGeometry relative="1" as="geometry" />
        </mxCell>
        <mxCell id="kavnt-JneBNQBCjQznNA-6" value="encrypt" style="whiteSpace=wrap;html=1;rounded=1;" vertex="1" parent="1">
          <mxGeometry x="530" y="390" width="120" height="60" as="geometry" />
        </mxCell>
        <mxCell id="kavnt-JneBNQBCjQznNA-8" value="save to database" style="whiteSpace=wrap;html=1;rounded=1;" vertex="1" parent="1">
          <mxGeometry x="730" y="390" width="120" height="60" as="geometry" />
        </mxCell>
      </root>
    </mxGraphModel>
  </diagram>
</mxfile>
